<!-- SSDI Symptom Tracker Splash Screen -->
<svg width="1080" height="1920" viewBox="0 0 1080 1920" fill="none" xmlns="http://www.w3.org/2000/svg">
  <!-- Background Gradient -->
  <defs>
    <linearGradient id="backgroundGradient" x1="0%" y1="0%" x2="0%" y2="100%">
      <stop offset="0%" style="stop-color:#1a365d;stop-opacity:1" />
      <stop offset="50%" style="stop-color:#003d80;stop-opacity:1" />
      <stop offset="100%" style="stop-color:#1a365d;stop-opacity:1" />
    </linearGradient>
    
    <linearGradient id="cardGradient" x1="0%" y1="0%" x2="0%" y2="100%">
      <stop offset="0%" style="stop-color:#ffffff;stop-opacity:1" />
      <stop offset="100%" style="stop-color:#f8f9fa;stop-opacity:1" />
    </linearGradient>
    
    <!-- Subtle Pattern -->
    <pattern id="medicalPattern" x="0" y="0" width="100" height="100" patternUnits="userSpaceOnUse">
      <circle cx="50" cy="50" r="1" fill="white" opacity="0.05"/>
      <rect x="48" y="30" width="4" height="40" fill="white" opacity="0.03"/>
      <rect x="30" y="48" width="40" height="4" fill="white" opacity="0.03"/>
    </pattern>
  </defs>
  
  <!-- Background -->
  <rect width="1080" height="1920" fill="url(#backgroundGradient)"/>
  <rect width="1080" height="1920" fill="url(#medicalPattern)"/>
  
  <!-- Main Content Container -->
  <g transform="translate(140, 500)">
    <!-- App Icon (Large) -->
    <g transform="translate(300, 0)">
      <!-- Icon Background -->
      <circle cx="200" cy="200" r="200" fill="white" opacity="0.95"/>
      <circle cx="200" cy="200" r="180" fill="url(#cardGradient)"/>
      
      <!-- Medical Chart Icon -->
      <g transform="translate(50, 50)">
        <!-- Chart Background -->
        <rect x="0" y="0" width="300" height="300" rx="20" fill="white" stroke="#0066e6" stroke-width="3"/>
        
        <!-- Chart Header -->
        <rect x="0" y="0" width="300" height="60" rx="20" fill="#0066e6"/>
        <rect x="0" y="40" width="300" height="20" fill="#0066e6"/>
        
        <!-- Chart Title -->
        <rect x="20" y="15" width="80" height="12" rx="6" fill="white"/>
        <rect x="20" y="32" width="120" height="10" rx="5" fill="white" opacity="0.8"/>
        
        <!-- Medical Cross -->
        <g transform="translate(240, 10)">
          <rect x="15" y="5" width="8" height="30" fill="white"/>
          <rect x="5" y="15" width="30" height="8" fill="white"/>
        </g>
        
        <!-- Health Data Visualization -->
        <g transform="translate(20, 80)">
          <!-- Heart Rate Line -->
          <path d="M0 50 L30 30 L60 15 L90 35 L120 20 L150 40 L180 25 L210 45 L240 30 L260 40" 
                stroke="#0066e6" stroke-width="3" fill="none"/>
          
          <!-- Data Points -->
          <circle cx="30" cy="30" r="4" fill="#0066e6"/>
          <circle cx="90" cy="35" r="4" fill="#0066e6"/>
          <circle cx="150" cy="40" r="4" fill="#0066e6"/>
          <circle cx="210" cy="45" r="4" fill="#0066e6"/>
          
          <!-- Heart Symbol -->
          <g transform="translate(220, 20)">
            <path d="M15,25 C15,18 8,12 0,12 C-8,12 -15,18 -15,25 C-15,32 0,48 15,25 Z"
                  fill="#dc3545"/>
            <path d="M15,25 C15,18 22,12 30,12 C38,12 45,18 45,25 C45,32 30,48 15,25 Z"
                  fill="#dc3545"/>
          </g>
          
          <!-- Symptom Bars -->
          <rect x="0" y="80" width="50" height="15" rx="7" fill="#28a745"/>
          <rect x="0" y="100" width="80" height="15" rx="7" fill="#ffc107"/>
          <rect x="0" y="120" width="120" height="15" rx="7" fill="#fd7e14"/>
          <rect x="0" y="140" width="160" height="15" rx="7" fill="#dc3545"/>
          
          <!-- Timeline -->
          <rect x="0" y="180" width="240" height="2" fill="#dee2e6"/>
          <circle cx="0" cy="181" r="3" fill="#0066e6"/>
          <circle cx="60" cy="181" r="3" fill="#0066e6"/>
          <circle cx="120" cy="181" r="3" fill="#0066e6"/>
          <circle cx="180" cy="181" r="3" fill="#0066e6"/>
          <circle cx="240" cy="181" r="3" fill="#0066e6"/>
          
          <!-- Footer Elements -->
          <rect x="0" y="210" width="200" height="6" rx="3" fill="#dee2e6"/>
          <rect x="0" y="220" width="150" height="6" rx="3" fill="#dee2e6"/>
        </g>
      </g>
    </g>
    
    <!-- App Name -->
    <g transform="translate(0, 450)">
      <text x="400" y="0" text-anchor="middle" fill="white" 
            font-family="system-ui, -apple-system, sans-serif" 
            font-size="56" font-weight="700">
        SSDI Symptom Tracker
      </text>
      
      <!-- Subtitle -->
      <text x="400" y="50" text-anchor="middle" fill="white" opacity="0.9"
            font-family="system-ui, -apple-system, sans-serif" 
            font-size="28" font-weight="400">
        Evidence Collection for SSDI Documentation
      </text>
    </g>
    
    <!-- Feature Highlights -->
    <g transform="translate(0, 580)">
      <g transform="translate(0, 0)">
        <circle cx="20" cy="20" r="3" fill="#28a745"/>
        <text x="40" y="26" fill="white" opacity="0.8" 
              font-family="system-ui, -apple-system, sans-serif" 
              font-size="24" font-weight="400">
          Track symptoms and functional impact
        </text>
      </g>
      
      <g transform="translate(0, 50)">
        <circle cx="20" cy="20" r="3" fill="#28a745"/>
        <text x="40" y="26" fill="white" opacity="0.8"
              font-family="system-ui, -apple-system, sans-serif" 
              font-size="24" font-weight="400">
          Generate SSDI-appropriate reports
        </text>
      </g>
      
      <g transform="translate(0, 100)">
        <circle cx="20" cy="20" r="3" fill="#28a745"/>
        <text x="40" y="26" fill="white" opacity="0.8"
              font-family="system-ui, -apple-system, sans-serif" 
              font-size="24" font-weight="400">
          100% private - local storage only
        </text>
      </g>
      
      <g transform="translate(0, 150)">
        <circle cx="20" cy="20" r="3" fill="#28a745"/>
        <text x="40" y="26" fill="white" opacity="0.8"
              font-family="system-ui, -apple-system, sans-serif" 
              font-size="24" font-weight="400">
          Multi-profile support
        </text>
      </g>
    </g>
    
    <!-- Medical Symbol Decorations -->
    <g opacity="0.1">
      <!-- Top Right -->
      <g transform="translate(650, 50)">
        <circle cx="0" cy="0" r="40" fill="white"/>
        <rect x="-20" y="-10" width="40" height="20" rx="10" fill="none" stroke="white" stroke-width="2"/>
        <rect x="-10" y="-20" width="20" height="40" rx="10" fill="none" stroke="white" stroke-width="2"/>
      </g>
      
      <!-- Bottom Left -->
      <g transform="translate(50, 650)">
        <circle cx="0" cy="0" r="30" fill="white"/>
        <rect x="-15" y="-7" width="30" height="14" rx="7" fill="none" stroke="white" stroke-width="2"/>
        <rect x="-7" y="-15" width="14" height="30" rx="7" fill="none" stroke="white" stroke-width="2"/>
      </g>
    </g>
    
    <!-- Loading Indicator Area -->
    <g transform="translate(300, 750)">
      <!-- Subtle loading dots space -->
      <circle cx="180" cy="20" r="4" fill="white" opacity="0.3"/>
      <circle cx="200" cy="20" r="4" fill="white" opacity="0.5"/>
      <circle cx="220" cy="20" r="4" fill="white" opacity="0.7"/>
    </g>
  </g>
  
  <!-- Footer -->
  <g transform="translate(0, 1800)">
    <text x="540" y="40" text-anchor="middle" fill="white" opacity="0.6"
          font-family="system-ui, -apple-system, sans-serif" 
          font-size="18" font-weight="400">
      Professional Evidence Collection Tool
    </text>
    <text x="540" y="65" text-anchor="middle" fill="white" opacity="0.5"
          font-family="system-ui, -apple-system, sans-serif" 
          font-size="16" font-weight="300">
      Not a wellness app - For SSDI documentation
    </text>
  </g>
</svg>